<?xml version="1.0" encoding="iso-8859-1"?>
<!-- Generator: Adobe Illustrator 19.0.0, SVG Export Plug-In . SVG Version: 6.00 Build 0)  -->
<svg version="1.1" id="Layer_1" xmlns="http://www.w3.org/2000/svg" xmlns:xlink="http://www.w3.org/1999/xlink" x="0px"
     y="0px" width="100px"
     viewBox="0 0 512.003 512.003" style="enable-background:new 0 0 512.003 512.003;" xml:space="preserve">
<g>
	<path style="fill:#C69666;" d="M317.794,17.658V0.003H194.208v17.655H35.312c-19.5,0-35.31,15.81-35.31,35.31v423.724
		c0,19.5,15.81,35.31,35.31,35.31h441.379c19.5,0,35.31-15.81,35.31-35.31V52.968c0-19.5-15.81-35.31-35.31-35.31H317.794z"/>
    <g>
		<path style="fill:#E8D5B2;" d="M305.607,130.798l-49.602-42.522l-49.611,42.522c-4.785,4.105-12.182,0.706-12.182-5.606V0h123.586
			v125.193C317.798,131.505,310.392,134.903,305.607,130.798"/>
        <path style="fill:#E8D5B2;" d="M343.974,379.589H168.032c-5.049,0-9.137-4.087-9.137-9.128V212.165
			c0-5.041,4.087-9.128,9.137-9.128h175.943c5.041,0,9.128,4.087,9.128,9.128v158.296
			C353.102,375.502,349.015,379.589,343.974,379.589"/>
	</g>
    <g>
		<path style="fill:#CBB292;" d="M256.001,247.175h-61.793c-4.873,0-8.828-3.955-8.828-8.828s3.955-8.828,8.828-8.828h61.793
			c4.873,0,8.828,3.955,8.828,8.828S260.874,247.175,256.001,247.175"/>
        <path style="fill:#CBB292;" d="M317.794,247.175h-26.483c-4.873,0-8.828-3.955-8.828-8.828s3.955-8.828,8.828-8.828h26.483
			c4.873,0,8.828,3.955,8.828,8.828S322.667,247.175,317.794,247.175"/>
        <path style="fill:#CBB292;" d="M220.691,282.485h-26.483c-4.873,0-8.828-3.955-8.828-8.828c0-4.873,3.955-8.828,8.828-8.828
			h26.483c4.873,0,8.828,3.955,8.828,8.828C229.519,278.531,225.564,282.485,220.691,282.485"/>
        <path style="fill:#CBB292;" d="M317.794,282.485h-61.793c-4.873,0-8.828-3.955-8.828-8.828c0-4.873,3.955-8.828,8.828-8.828
			h61.793c4.873,0,8.828,3.955,8.828,8.828C326.622,278.531,322.667,282.485,317.794,282.485"/>
        <path style="fill:#CBB292;" d="M264.829,317.796h-70.621c-4.873,0-8.828-3.955-8.828-8.828s3.955-8.828,8.828-8.828h70.621
			c4.873,0,8.828,3.955,8.828,8.828S269.702,317.796,264.829,317.796"/>
        <path style="fill:#CBB292;" d="M317.794,317.796h-17.655c-4.873,0-8.828-3.955-8.828-8.828s3.955-8.828,8.828-8.828h17.655
			c4.873,0,8.828,3.955,8.828,8.828S322.667,317.796,317.794,317.796"/>
        <path style="fill:#CBB292;" d="M247.174,353.106h-52.966c-4.873,0-8.828-3.955-8.828-8.828s3.955-8.828,8.828-8.828h52.966
			c4.873,0,8.828,3.955,8.828,8.828S252.047,353.106,247.174,353.106"/>
        <path style="fill:#CBB292;" d="M317.794,353.106h-35.31c-4.873,0-8.828-3.955-8.828-8.828s3.955-8.828,8.828-8.828h35.31
			c4.873,0,8.828,3.955,8.828,8.828S322.667,353.106,317.794,353.106"/>
	</g>
	</g>
</svg>
